# xmcd CD database file
#
# Track frame offsets:
#	150
#	15856
#	31910
#	46791
#	59881
#	71344
#	84678
#	99424
#	112921
#	126498
#	139450
#
# Disc length: 2080 seconds
#
# Revision: 0
# Processed by: cddbd v1.5.2PL0 Copyright (c) Steve Scherf et al.
# Submitted via: CDex 1.51
#
DISCID=92081e0b
DTITLE=Locash - The Fighters
DYEAR=2016
DGENRE=Country
TTITLE0=I Love This Life
TTITLE1=Ring On Every Finger
TTITLE2=I Know Somebody
TTITLE3=Shipwrecked
TTITLE4=Moonwalkin
TTITLE5=Drunk Drunk
TTITLE6=ALLL DAY
TTITLE7=God Loves Me More
TTITLE8=Till The Wheels Fall Off
TTITLE9=Aint Startin Tonight
TTITLE10=The Fighters
EXTD=YEAR: 2016
EXTT0=
EXTT1=
EXTT2=
EXTT3=
EXTT4=
EXTT5=
EXTT6=
EXTT7=
EXTT8=
EXTT9=
EXTT10=
PLAYORDER=
